<svg width="237" height="180" viewBox="0 0 237 180" fill="none" xmlns="http://www.w3.org/2000/svg">
<path d="M217.449 165.825C217.449 166.706 217.332 168.041 217.097 169.831C216.892 171.621 216.789 172.942 216.789 173.793C216.789 174.615 216.701 175.143 216.525 175.378C216.349 175.613 215.864 175.95 215.072 176.39C211.287 178.474 207.09 179.516 202.483 179.516C194.003 179.516 189.762 176.273 189.762 169.787C189.762 167.85 189.836 164.945 189.982 161.071C190.129 157.168 190.203 154.248 190.203 152.311C190.203 151.02 189.454 150.374 187.958 150.374C187.84 150.374 187.65 150.374 187.385 150.374C187.121 150.403 186.931 150.418 186.813 150.418C185.698 150.418 185.141 150.022 185.141 149.229C185.141 148.76 185.17 148.041 185.229 147.072C185.317 146.104 185.361 145.385 185.361 144.915C185.361 144.299 185.317 143.36 185.229 142.098C185.17 140.836 185.141 139.897 185.141 139.28C185.141 138.694 186.08 138.371 187.958 138.312C189.014 138.283 189.586 137.989 189.674 137.432C189.85 136.316 189.909 134.556 189.85 132.149C189.733 128.363 189.674 126.558 189.674 126.734C189.674 123.33 189.997 121.628 190.643 121.628C191.435 121.628 192.565 121.804 194.032 122.156C195.705 122.538 196.864 122.758 197.509 122.817C199.006 123.022 201.266 123.301 204.288 123.653C205.022 123.712 205.388 123.961 205.388 124.401C205.388 125.575 205.286 127.351 205.08 129.728C204.904 132.105 204.816 133.895 204.816 135.098C204.816 136.536 205.242 137.256 206.093 137.256C207.12 137.256 208.675 137.211 210.759 137.123C212.842 137.035 214.412 136.991 215.468 136.991C216.114 136.991 216.437 137.211 216.437 137.652C216.437 138.327 216.363 139.339 216.217 140.689C216.07 142.039 215.997 143.052 215.997 143.727C215.997 144.431 216.011 145.458 216.041 146.808C216.07 148.158 216.085 149.185 216.085 149.89C216.085 150.506 215.659 150.814 214.808 150.814C214.221 150.814 213.238 150.799 211.859 150.77C210.48 150.711 209.497 150.682 208.91 150.682H205.609C205.168 150.682 204.948 151.328 204.948 152.619C204.948 153.323 204.948 154.365 204.948 155.744C204.978 157.153 204.992 158.195 204.992 158.87C204.992 161.335 205.271 163.037 205.829 163.976C206.621 165.238 208.176 165.869 210.494 165.869C211.228 165.869 212.27 165.708 213.62 165.385C214.999 165.033 215.967 164.857 216.525 164.857C217.141 164.857 217.449 165.18 217.449 165.825Z" fill="#fff"/>
<path d="M181.443 149.756C181.414 149.756 180.519 149.521 178.758 149.052C177.027 148.582 175.619 148.348 174.533 148.348C171.921 148.348 169.838 149.14 168.282 150.725C166.727 152.28 165.949 154.364 165.949 156.976C165.949 159.676 166.8 161.803 168.502 163.359C170.204 164.885 172.42 165.648 175.149 165.648C176.44 165.648 177.893 165.325 179.507 164.679C181.121 164.005 181.884 163.667 181.796 163.667C182.294 163.667 182.94 165.531 183.732 169.258C184.407 172.662 184.745 174.922 184.745 176.037C184.745 177.152 182.925 178.106 179.287 178.898C176.47 179.515 174.195 179.823 172.464 179.823C166.008 179.823 160.682 177.651 156.486 173.308C152.29 168.964 150.191 163.55 150.191 157.064C150.191 150.637 152.29 145.237 156.486 140.864C160.711 136.462 166.038 134.261 172.464 134.261C176.836 134.261 180.681 135.2 183.996 137.078C184.759 137.489 185.141 137.885 185.141 138.267C185.141 138.648 184.701 140.38 183.82 143.461C182.999 146.425 182.456 148.216 182.192 148.832C181.957 149.448 181.708 149.756 181.443 149.756Z" fill="#fff"/>
<path d="M149.264 154.82C149.264 157.784 148.31 159.472 146.403 159.883C146.08 159.941 143.043 160.264 137.291 160.851C133.829 161.233 128.664 161.687 121.798 162.216C122.208 164.123 123.455 165.576 125.539 166.574C127.241 167.396 129.178 167.806 131.349 167.806C133.961 167.806 136.587 167.102 139.228 165.693C140.343 164.989 141.458 164.285 142.574 163.58C143.19 163.874 144.217 165.371 145.655 168.071C147.122 170.771 147.856 172.487 147.856 173.221C147.856 173.426 147.635 173.764 147.195 174.234C143.615 178.078 138.054 180 130.513 180C123.529 180 117.895 177.961 113.61 173.881C109.209 169.743 107.008 164.211 107.008 157.285C107.008 150.535 108.974 145.003 112.906 140.689C116.956 136.228 122.326 133.998 129.016 133.998C134.65 133.998 139.434 136.052 143.366 140.161C147.298 144.27 149.264 149.156 149.264 154.82ZM133.858 152.135C133.858 150.315 133.213 148.716 131.921 147.337C130.63 145.957 129.09 145.268 127.3 145.268C125.451 145.268 123.925 146.045 122.722 147.601C121.607 149.039 121.049 150.726 121.049 152.663C121.049 153.455 121.46 153.852 122.282 153.852C124.453 153.852 127.828 153.514 132.406 152.839C133.374 152.692 133.858 152.458 133.858 152.135Z" fill="#fff"/>
<path d="M105.598 151.297C105.598 152.441 104.967 153.014 103.705 153.014C103.147 153.014 102.326 152.984 101.24 152.926C100.183 152.837 99.3911 152.793 98.8629 152.793C96.4273 152.793 94.7693 153.175 93.889 153.938C93.0087 154.701 92.5685 156.242 92.5685 158.56C92.5685 159.822 92.5832 161.744 92.6125 164.327C92.6712 166.88 92.7005 168.788 92.7005 170.05C92.7005 170.901 92.7592 172.178 92.8766 173.88C92.994 175.552 93.0527 176.8 93.0527 177.621C93.0527 178.326 92.5685 178.722 91.6001 178.81C90.1916 178.927 88.0347 178.986 85.1296 178.986C82.3419 178.986 80.1117 178.898 78.439 178.722C77.4707 178.605 76.9865 178.12 76.9865 177.269C76.9865 174.922 77.0012 171.414 77.0305 166.748C77.0598 162.053 77.0745 158.531 77.0745 156.183C77.0745 149.286 76.4436 143.608 75.1818 139.147C75.1231 138.883 75.0938 138.663 75.0938 138.487C75.0938 138.046 75.3138 137.753 75.754 137.606C77.368 137.43 79.7302 137.107 82.8407 136.638C87.4772 135.728 89.8688 135.273 90.0155 135.273C90.5437 135.273 90.8812 136.197 91.0279 138.046C91.1746 139.895 91.4387 140.82 91.8202 140.82C91.4094 140.82 92.6125 140.057 95.4296 138.531C98.2467 136.975 100.961 136.197 103.573 136.197C105.216 136.197 106.038 136.55 106.038 137.254C106.038 138.105 105.95 139.308 105.774 140.864C105.598 142.536 105.495 143.74 105.465 144.473C105.465 145.324 105.48 146.454 105.509 147.863C105.568 149.595 105.598 150.739 105.598 151.297Z" fill="#fff"/>
<path d="M70.8206 125.811C70.8206 130.917 67.9448 133.47 62.1933 133.47C59.7283 133.47 57.6889 132.825 56.0749 131.533C54.3142 130.125 53.4339 128.217 53.4339 125.811C53.4339 123.521 54.3436 121.643 56.1629 120.176C57.8356 118.826 59.8457 118.151 62.1933 118.151C64.4821 118.151 66.4629 118.841 68.1356 120.22C69.9256 121.687 70.8206 123.551 70.8206 125.811ZM69.6761 158.518C69.6761 160.661 69.7202 163.86 69.8082 168.115C69.8962 172.341 69.9402 175.511 69.9402 177.624C69.9402 178.24 69.5734 178.607 68.8398 178.724C67.8421 178.9 65.5972 178.988 62.1052 178.988C58.5839 178.988 56.3243 178.9 55.3266 178.724C54.681 178.607 54.2849 178.416 54.1382 178.152C54.0795 178.035 54.0501 177.594 54.0501 176.831C54.0501 174.806 54.0941 171.769 54.1822 167.719C54.2702 163.64 54.3142 160.573 54.3142 158.518C54.3142 150.184 53.9914 143.551 53.3458 138.621C53.2872 138.151 53.2578 137.843 53.2578 137.696C53.2578 137.109 53.654 136.816 54.4463 136.816C55.2679 136.816 56.5151 136.904 58.1877 137.08C59.8897 137.256 61.1662 137.344 62.0172 137.344C62.8682 137.344 64.1447 137.271 65.8467 137.124C67.5487 136.977 68.8251 136.904 69.6761 136.904C70.3804 136.904 70.7326 137.197 70.7326 137.784C70.7326 137.902 70.7032 138.181 70.6445 138.621C69.9989 144.344 69.6761 150.976 69.6761 158.518Z" fill="#fff"/>
<path d="M48.6828 116.256C48.6828 115.611 48.5654 116.579 48.3306 119.162C48.0078 122.419 47.7584 126.587 47.5824 131.664C47.3476 137.416 47.2302 143.96 47.2302 151.297C47.2302 163.418 47.5677 172.046 48.2426 177.182C48.3013 177.739 48.3306 178.092 48.3306 178.238C48.3306 178.561 48.1106 178.752 47.6704 178.811C46.614 178.957 42.7258 179.031 36.0059 179.031C34.4213 179.031 33.5116 178.723 33.2768 178.106C33.2181 176.991 33.1595 175.876 33.1008 174.761C33.0714 174.526 32.954 174.291 32.7486 174.056C32.5726 174.144 32.3525 174.32 32.0884 174.585C28.9192 177.695 24.9576 179.251 20.2038 179.251C14.0121 179.251 9.05282 177.079 5.32605 172.736C1.77535 168.598 0 163.374 0 157.064C0 150.666 1.74601 145.398 5.23802 141.26C8.93545 136.858 13.924 134.657 20.2038 134.657C24.6348 134.657 28.0828 136.066 30.5478 138.883C30.9586 139.353 31.2521 139.588 31.4281 139.588C31.6922 139.588 31.8243 139.206 31.8243 138.443C31.8243 136.183 31.7656 132.808 31.6482 128.318C31.5308 123.828 31.4721 120.468 31.4721 118.237C31.4721 117.386 31.7069 116.902 32.1764 116.785C34.0545 116.697 36.6368 116.52 39.9234 116.256C45.7923 115.523 48.3893 115.156 47.7144 115.156C48.36 115.156 48.6828 115.523 48.6828 116.256ZM32.0884 156.712C32.0884 154.393 31.2814 152.368 29.6674 150.637C28.0535 148.876 26.1021 147.996 23.8132 147.996C21.4069 147.996 19.4848 148.876 18.047 150.637C16.6384 152.368 15.9341 154.452 15.9341 156.888C15.9341 159.265 16.6531 161.275 18.091 162.919C19.5582 164.68 21.4656 165.56 23.8132 165.56C26.1608 165.56 28.1268 164.68 29.7115 162.919C31.2961 161.158 32.0884 159.089 32.0884 156.712Z" fill="#fff"/>
<path d="M227.959 179.644C233.71 179.644 236.586 177.091 236.586 171.984C236.586 169.725 235.691 167.861 233.901 166.394C232.228 165.014 230.247 164.325 227.959 164.325C225.611 164.325 223.601 165 221.928 166.35C220.109 167.817 219.199 169.695 219.199 171.984C219.199 174.391 220.08 176.299 221.84 177.707C223.454 178.998 225.494 179.644 227.959 179.644Z" fill="#00BCB1"/>
<path d="M169.172 77.9969L173.736 42.6445L176.06 42.8768C179.083 43.1789 182.069 43.7702 184.979 44.6427C186.391 45.0661 187.248 46.4966 186.954 47.9412L185.168 56.7168L184.121 60.3054C183.293 63.1406 181.847 65.7573 179.888 67.9675L176.779 71.4756L169.172 77.9969Z" fill="#12CBC0"/>
<path d="M65.7378 77.9969L61.1741 42.6445L58.8503 42.8768C55.8276 43.1789 52.8408 43.7702 49.931 44.6427C48.5188 45.0661 47.6626 46.4966 47.9565 47.9412L49.742 56.7168L50.7896 60.3054C51.6173 63.1406 53.0627 65.7573 55.0219 67.9675L58.1316 71.4756L65.7378 77.9969Z" fill="#12CBC0"/>
<path fill-rule="evenodd" clip-rule="evenodd" d="M127.694 22.0603C120.414 20.9329 113.002 20.9492 105.727 22.1084L77.3239 26.5477C72.5244 27.3125 69.9925 30.4501 69.9925 35.3079L71.5364 71.0789C71.5364 77.8462 75.0109 82.7991 81.5138 84.6831L97.3004 89.5465C109.99 93.2229 123.456 93.2737 136.173 89.6931L153.287 84.5931C159.845 82.7467 163.375 77.7672 163.375 70.9573L164.919 35.3656C164.919 30.4914 162.364 27.3449 157.545 26.5987L127.694 22.0603ZM104.051 9.59744C112.421 8.26369 120.948 8.24501 129.324 9.54209L160.175 14.0804C170.184 15.6304 177.568 24.2422 177.568 34.3656L176.024 71.9573C176.024 83.5341 168.323 93.6992 157.174 96.8381L139.061 101.938C124.429 106.058 108.936 105.999 94.3359 101.769L77.5492 96.906C66.4944 93.7032 58.8877 83.5833 58.8877 72.0789L57.3438 34.3079C57.3438 24.2186 64.6792 15.6251 74.6474 14.0367L104.051 9.59744Z" fill="#12CBC0"/>
<path d="M87.6932 9.0696C86.9583 7.15382 88.1578 5.0442 90.18 4.69608L100.494 2.9206C111.721 0.987749 123.197 0.98775 134.424 2.9206L144.738 4.69608C146.76 5.0442 147.96 7.15382 147.225 9.0696L145.823 12.7229C144.177 17.0147 141.56 20.8675 138.178 23.9803V23.9803C137.102 24.97 135.632 25.412 134.189 25.1795L130.291 24.5513C121.791 23.1815 113.127 23.1815 104.627 24.5513L100.729 25.1795C99.2856 25.412 97.8157 24.97 96.7402 23.9803V23.9803C93.3578 20.8675 90.7411 17.0147 89.0947 12.7229L87.6932 9.0696Z" fill="#12CBC0"/>
<ellipse cx="179.873" cy="10.0354" rx="6.94766" ry="6.94755" fill="#12CBC0"/>
<path fill-rule="evenodd" clip-rule="evenodd" d="M176.642 45.3303L178.186 15.353L181.53 15.353L183.074 45.3303L176.642 45.3303Z" fill="#12CBC0"/>
<ellipse cx="54.8109" cy="10.0354" rx="6.94766" ry="6.94755" fill="#12CBC0"/>
<path fill-rule="evenodd" clip-rule="evenodd" d="M51.7706 45.3303L53.3145 15.353L56.6592 15.353L58.2031 45.3303L51.7706 45.3303Z" fill="#12CBC0"/>
<path fill-rule="evenodd" clip-rule="evenodd" d="M75.6472 60.2962C75.6497 56.4211 75.3829 50.9291 75.1623 46.3872C75.0069 43.1894 74.8745 40.4625 74.875 39.1027C74.8778 32.1551 89.7901 30.977 100.724 34.2685C102.506 34.8049 104.68 35.6959 106.913 36.6108C110.794 38.2009 114.852 39.8634 117.333 39.8634C119.814 39.8634 123.871 38.2009 127.752 36.6108C129.986 35.6959 132.16 34.8049 133.942 34.2685C144.876 30.977 159.791 32.4446 159.791 39.1026C159.791 40.4624 159.659 43.1893 159.504 46.3872C159.283 50.9291 159.016 56.4211 159.019 60.2962C159.025 69.8405 142.808 77.9146 133.616 77.4502C129.802 77.2575 127.033 75.425 124.465 73.725C122.133 72.1821 119.967 70.7483 117.333 70.7483C114.699 70.7483 112.532 72.1821 110.201 73.725C107.633 75.425 104.864 77.2575 101.049 77.4502C92.2825 77.8932 75.6409 69.8405 75.6472 60.2962ZM88.2845 50.6657C88.5618 46.4697 91.4992 43.2297 96.3106 43.2297C101.122 43.2297 105.214 46.4697 105.491 50.6657L105.754 54.6338C105.785 55.1098 105.785 57.1318 105.754 57.6077L105.491 61.5759C105.214 65.7718 99.9263 67.9321 96.3106 67.9321C92.6948 67.9321 88.5618 65.7718 88.2845 61.5759L88.0222 57.6077C87.9907 57.1318 87.9907 55.1098 88.0222 54.6338L88.2845 50.6657ZM137.995 43.2297C133.184 43.2297 129.452 46.4697 129.174 50.6657L128.912 54.6338C128.881 55.1098 128.881 57.1318 128.912 57.6077L129.174 61.5759C129.452 65.7719 134.38 67.9321 137.995 67.9321C141.611 67.9321 146.103 65.7718 146.381 61.5759L146.643 57.6077C146.675 57.1318 146.675 55.1098 146.643 54.6338L146.381 50.6657C146.103 46.4697 142.807 43.2297 137.995 43.2297Z" fill="#12CBC0"/>
</svg>
